<?xml version="1.0" encoding="utf-8"?>
<!-- Generator: Adobe Illustrator 23.0.3, SVG Export Plug-In . SVG Version: 6.00 Build 0)  -->
<svg version="1.1" id="图层_1" xmlns="http://www.w3.org/2000/svg" xmlns:xlink="http://www.w3.org/1999/xlink" x="0px" y="0px"
	 viewBox="0 0 1200 1200" style="enable-background:new 0 0 1200 1200;" xml:space="preserve">
<style type="text/css">
	.st0{fill:#606177;}
	.st1{fill:#B8A094;}
	.st2{fill:#FEFEFE;}
	.st3{fill:#D4C6BD;}
</style>
<path class="st0" d="M984.7,789.8c10.8,4.6,21.3,8.8,31.6,13.4c9.3,4.1,18.7,8.1,27.5,13c15.2,8.6,29.6,18.5,42.5,30.4
	c11.7,10.8,18.9,24.2,23.6,39.3c6.3,20,7.2,40.4,5.7,61.2c-0.9,13.3-1.7,26.5-4.7,39.6c-3,13.2-6.9,26.1-14.2,37.6
	c-6.2,10-14.4,18-25.1,22.8c-21.9,9.7-45.8,1-56.4-21.1c-4.9-10.3-7.5-21.6-11-32.5c-1-3-1.5-6.1-2.4-9.2
	c-3-10.6-6.9-20.3-14.7-28.9c-6-6.6-12.3-9.8-20.5-10.1c-6-0.3-12-0.2-17.9,0.5c-12,1.5-24,3.7-36,5.5c-20.5,3.2-41.1,6.3-61.1,12.4
	c-3.5,1.1-4.3,2.5-3.3,6c6.5,21.2,4,42.2-3.1,62.7c-6.3,18.4-12.7,36.8-23.4,53.4c-14.1,21.9-33.6,36-59.9,38.4
	c-24.7,2.3-46.8-9.3-50.2-39.4c-1.5-13.5-1.8-27.2-3.2-40.8c-1-9.4-2.6-18.8-4.6-28c-3.4-15.6-13.7-26.4-26.5-34.9
	c-7.7-5.2-16-9.6-23.9-14.5c-22.5-13.8-43.5-29.6-61.6-48.8c-6.4-6.9-11.9-14.7-17-22.6c-2.8-4.4-5.8-6.3-11.1-6.7
	c-24.2-1.8-48.4-3.7-72.6-6.2c-13.5-1.4-26.3-6-38.4-12.1c-13.2-6.7-20.9-18.2-22.7-32.7c-1.3-10.2-1.2-20.6-0.8-30.8
	c1.1-30.5,8-60,16.7-89c5.8-19.5,13.7-38.2,26.2-54.6c3.5-4.6,7.4-8.9,11.2-13.4c-0.2-0.3-0.3-0.7-0.5-0.7
	c-31.5-2.4-58.1-15.8-81-36.8c-28.5-26.2-43-59.7-44.7-97.7c-2.2-49.5,6.1-97.8,21.9-144.8c5.5-16.2,11-32.4,17-48.5
	c2.6-7,6.2-13.6,9.5-20.4c1-2.1,1.3-3.7,0.1-6c-13.5-24.4-22.2-50.4-27.1-77.8c-6.4-36.1-6.5-72.2-0.5-108.3c1.1-6.5,3-13,5.6-19.1
	c8.5-19.7,27.7-28.5,48.1-21.9c6.4,2.1,12.7,5,18.4,8.7c15.8,10.3,32.2,19.5,49.6,26.6c11.5,4.7,23.3,8.8,35.1,12.7
	c15.4,5.1,31.1,5.5,47.2,2.6c37-6.7,74.4-8.7,111.9-7.4c20.2,0.7,40.4,3.1,60.6,5c11.7,1.1,23.4,2.8,35.1,4.2
	c5.4,0.6,10.9,1.6,16.3,1.6c13.8,0,26.3-5.2,38.6-10.8c19.9-9,38.2-20.9,56.8-32.3c11.5-7,23.2-13.8,36.2-17.7
	c16.2-4.8,28.8-0.7,39.5,12.5c7.4,9.2,11.6,19.8,13.9,31.2c7.8,38.5,8.5,77,0.3,115.5c-4.2,19.9-13,38-22.7,55.7
	c-1.6,2.9-1.6,5-0.1,7.7c10.3,18.5,19.1,37.7,26,57.7c11.9,34.7,20.3,70.3,24.5,106.8c2.4,20.9,3.8,41.8,3,62.8
	c-1.1,27.9-8.9,53.9-26.3,76.1c-14.1,17.9-31.9,31.6-52.9,40.7c-11.5,5-23.5,9.2-36.6,11.1c1.8,1.2,3.6,2.5,5.5,3.5
	c22.1,11.4,42,25.7,59,43.9c8.5,9.1,17.4,17.7,22.2,29.8c4.6,11.5,6.3,23.1,4.9,35.2c-1.5,13-5.1,25.4-12.2,36.6
	C985.3,788.1,985.1,788.8,984.7,789.8z M1022.1,978.3L1022.1,978.3c1,5,1.7,10.2,3.2,15.2c2.8,8.6,5.2,17.6,9.3,25.6
	c6.2,12.1,22.3,15,33,6.9c11.8-9,17.8-21.5,20.7-35.7c1.1-4.3,2.4-8.6,3.1-13c1.3-8.8,2.9-17.7,3.2-26.6c0.4-9.7-0.2-19.4-0.7-29.2
	c-0.4-7.3-0.7-14.6-2.1-21.7c-2.8-14.4-8.3-27.4-19.5-37.8c-13.8-12.7-29.1-23.1-45.8-31.3c-16.2-7.9-32.9-14.9-49.4-22.3
	c-6.2-2.8-12.4-4.6-18.5,0.5c-0.5,0.4-1.2,0.4-1.9,0.7c-11.9,4.9-23.8,9.9-35.7,14.8c-1.3,0.4-2.5,0.7-3.8,1.2
	c-10.6,3.8-21.1,8.2-32.6,8.7c-13.6,0.6-23.6-5.8-29.1-18.3c-10.1-23-2.4-52.5,17.3-67.9c7.7-6,16.4-9.9,25.4-13.3
	c9.4-2.6,18.8-5.3,28.2-7.7c4.9-1.3,10.2,1.6,11.3,5.8c1.5,5.6-1.3,10.3-6.9,11.8c-8.4,2.3-17,4.4-25.3,7.1
	c-9.7,3.1-19.1,6.9-26,14.9c-1.1,1.3-1.8,3-2.7,4.6c-0.4,0.2-1,0.4-1.3,0.7c-7.5,9.4-8.7,28.4-2.5,38.8c2.1,3.5,4.9,5.9,9.2,5.7
	c7.7-0.3,15-2.1,21.9-5.7c16.1-5.7,32.4-11,47-20c26-15.9,33.5-45.8,19.9-72.8c-6.7-13.4-17.2-23.4-28.3-33
	c-21.5-18.5-46.3-30.8-73.1-39.3c-2.5-0.8-5.1-1.8-7.7-1.7c-10.8,0.2-21.5,0.8-32.3,1.2c-1.7-0.6-3.5-1.1-5.2-1.8
	c-5-2.2-6.1-5.3-3.9-10.3c2.2-5.2,6.6-6.7,11.6-7c13.1-0.8,26.2-1.3,39.3-2.3c25.6-1.8,50.3-7.4,72.9-20.2
	c35.4-20,54.4-50.5,56.6-91c1.4-25.1-0.4-50.2-4.3-75.1c-1.8-11.1-4.1-22.2-6.1-33.3c-3.6-13.3-7.2-26.7-10.9-40
	c-1.9-6.3-3.7-12.7-5.9-18.9c-7.5-21.6-17.7-41.9-29-61.6c-5.1-8.9-11.3-17.2-16.7-26c-1.2-2-2.2-5.6-1.2-7.2
	c1.7-2.9,5.4-2.7,8.6-1.8c1.1,0.3,2.1,0.9,3.2,1.5c2.4,1.3,4.8,2.7,7.2,4.1c2.9,4,2.7,3.7,6.1,0.8c8.7-7.4,12.5-17.4,15.9-27.7
	c4.6-14.4,6.6-29.2,7.5-44.1c1.8-29.4,0.6-58.5-8.6-86.7c-2.2-5.9-6.1-10.8-11-14.4c-2.1-1.6-5.6-2.2-8.2-1.9
	c-11.5,1.5-21.3,7.5-30.9,13.3c-22.1,13.2-43.6,27.3-67.1,38c-16.5,7.5-33.7,12.3-51.9,11.4c-12.3-0.6-24.6-2.8-36.9-4.8
	c-21.3-3.6-42.7-5.7-64.2-6.4c-15.4-0.5-30.9,0.2-46.3,0.7c-10.9,0.4-21.9,1-32.7,2.1c-12.2,1.2-24.2,3.3-36.4,4.8
	c-7.2,0.9-14.5,2.1-21.7,1.9c-14.3-0.3-28.1-4.1-41.7-8.6c-11-3.6-21.7-8.1-32.7-11.8c-17.7-5.9-33.7-14.6-47.8-26.9
	c-6.6-5.8-14.4-9.5-23.7-6.6c-5.6,0.7-8.9,4.6-10.9,9.2c-2.3,5.5-4.1,11.3-5,17.1c-4,25.4-4.9,50.8-2.5,76.5
	c2.6,27.2,9.1,53.3,19.7,78.4c0.4,1.1,1,2.2,1.8,2.9c1.8,1.6,3.5,2.4,5.3-0.3c1.7-2.6,3.8-5,5.9-7.4c2.9-3.4,5.9-6.8,10.8-7.4
	c4.3,3.4,4.6,7.7,2.6,12.4c-4.3,10.2-8.7,20.4-13.2,30.6c-1.6,3.6-3.9,7-5.5,10.6c-2.7,6.2-5.4,12.5-7.7,18.9
	c-3.9,10.7-7.5,21.5-11.2,32.3c-1.1,2.5-2.4,5-3.2,7.6c-2.5,8-4.9,16-7.2,24.1c-0.8,2.7-1.2,5.4-1.7,8.2c-0.9,2.6-2.1,5.2-2.8,7.9
	c-8.2,31.9-11.4,64.4-11.9,97.3c-0.4,24,7.1,45.8,18.8,66.3c3.9,6.7,8.4,13.3,13.9,18.8c12.6,12.8,27.3,22.8,44.4,28.8
	c10.5,3.7,20.9,8,32.2,8.1c12.5,0.1,24.9-0.1,37.4,0.2c5.1,0.1,10.4,0.5,15.2,1.9c7.3,2.1,14.3,5.2,21.4,7.9c0.5,0.8,1,1.7,1.5,2.5
	c2.4,4,2.1,7.2-1.1,10.3c-3.1,3.1-4.5,3.1-9.2,0.2c-8.7-5.3-17.7-6.5-27.6-3.4c-13.8,4.3-23.3,14-32,24.5
	c-11.3,13.7-18.2,30-24.3,46.5c-1.5,4-3.1,8.1-4.1,12.2c-4.9,19.7-11.1,39.2-12.2,59.7c-0.7,12.4-1.5,24.7-1.7,37.1
	c-0.3,14.9,7.9,23.2,21.5,28c17.7,6.2,36.1,8.2,54.6,9.6c9.1,0.7,18.2,1.3,27.3,1.8c5.6,0.3,11.2,0.5,16.8,0.7
	c5.8,0.2,11.6,0.7,17.3,0.5c10.6-0.3,20.7-2.8,29.9-8.3c11.4-6.7,13.1-17.4,3.9-26.9c-4.6-4.7-9.8-8.9-15-13.1
	c-1.4-1.2-3.6-1.5-5.4-2.3c-0.8-0.9-1.5-2.2-2.5-2.8c-11.3-6-22.3-12.5-34-17.6c-18.1-7.9-37.3-12.8-56.7-16.3
	c-6-1.1-10.3-6.5-9.3-11.5c1.2-6.6,6.5-10.6,13.1-9.1c13.9,3.2,27.8,6.3,41.4,10.5c20.2,6.2,39.4,15,57.1,26.5
	c12.7,8.2,25.1,16.9,32.9,30.5c6.9,12,7.5,24.7-0.7,35.7c-10.1,13.5-23.2,23.5-40.9,25.5c-1.5,0.2-2.9,1.2-4.3,1.9
	c0.6,1.3,1,2.8,1.9,3.8c5.9,6.1,11.8,12.1,17.9,18c11.9,11.6,25.3,21.4,39.2,30.5c12.5,8.2,25.5,15.5,37.8,24
	c16.1,11.2,26.8,26.6,30.9,46c1.9,9.2,2.9,18.6,4.3,27.9c0.5,9.1,0.8,18.2,1.7,27.3c0.8,7.5,2,15.1,3.8,22.5
	c1.4,5.7,5.7,9.3,11.3,10.9c3.6,1,7.5,1.8,11.2,1.8c12.8,0,23.9-5.1,33.7-13c7.5-6.1,13.7-13.4,17-22.8c4.3-9.5,8.8-18.9,12.9-28.4
	c5.4-12.5,9.5-25.6,10.6-39.2c1.3-16.4-1.3-32.4-8.6-47.4c-0.6-1.3-1.4-2.7-1.8-4.1c-1.9-6.8,3-12.8,10-12.7c4,0,6.2,2.4,7.6,5.5
	c1.6,3.5,3.7,4.2,7.1,2.7c3-1.3,6.2-2.4,9.4-3.1c9-2.1,18.1-3.9,27.2-5.9c6.5-1.4,12.9-2.9,19.4-4c10.6-1.7,21.3-3.2,31.9-4.6
	c12.8-1.6,25.5-3.2,38.6-1.7c18.8,2.2,32,12,40.2,28.6c3.7,7.5,6,15.6,8.9,23.5C1021.4,977.6,1021.8,978,1022.1,978.3z"/>
<path class="st0" d="M231.6,883.5c-24.9-0.6-49.2-3.3-72.6-12.1c-10.5-3.9-20.2-9.3-28.8-16.6c-13.7-11.4-20.7-26.6-24.8-43.4
	c-7-28.7-8-57.9-6.4-87.2c1.2-22.1,3.9-44,9.4-65.5c2.2-8.5,5.1-16.8,8-25.1c4-11.3,11.6-20,21.2-27.1
	c17.3-12.8,36.9-19.6,57.9-22.7c26-3.9,52.3-5.1,78.6-4.8c16.7,0.2,33.3,1.8,48.9,8.4c32.4,13.6,53.7,36.9,62,71.7
	c7.4,31.3,10.2,62.9,8.2,95c-1.4,21.8-4.4,43.4-12.4,63.8c-3.2,8.1-7.4,16-12,23.4c-6.8,10.9-16.6,18.4-28.7,23
	c-19.8,7.5-40.4,12.3-61.3,14.9C263.1,881.2,247.3,882.2,231.6,883.5z M235.9,651.8c-0.9,0.2-1.7,0.5-2.5,0.5
	c-17.6,0.1-35.2,0-52.9,0.1c-5.2,0-10.3,0.2-15.4,0.6c-7.5,0.7-9,2.7-8.9,10.2c0.2,13.3,0.3,26.6,0.3,39.8
	c0.1,22.6-1.2,45.2-4.5,67.6c-2.4,15.9-5.4,31.8-8.8,47.5c-0.9,4-0.5,7.2,1.5,10.3c2.4,3.8,6.2,4.1,10.1,3.7
	c2.7-0.3,4.5-1.7,5.2-4.5c5.8-22.9,10-46.1,12.2-69.6c1.2-13.7,2.2-27.5,3-41.3c0.2-2.9,1.2-3.6,3.8-3.8c4.1-0.2,8.3-0.5,12.4-1.3
	c3.4-0.6,4.4,0.8,4.7,3.8c0.7,5.7,3.5,10.3,7.5,14.3c5.8,5.7,12.9,8.1,20.7,8.4c12.8,0.5,25.6,0.7,38.4,1
	c11.6,0.3,23.3,0.8,34.9,0.6c4.6-0.1,9.2-1.3,13.6-2.4c1.4-0.3,2.8-1.7,3.7-3c2.5-3.5,2.3-7.4,0.1-10.8c-2-3.1-5.3-4-9.1-3.9
	c-17.6,0.7-35.2,1.4-52.8,1.5c-9.6,0-19.3-0.9-28.8-2.1c-3-0.4-6.2-2.5-8.3-4.7c-2.6-2.8-1.6-4.5,2.3-4.9
	c26.3-2.4,52.6-4.7,78.9-7.1c4.4-0.4,6.4-2.6,6.6-7.1c0.2-4.5-2.3-9.9-9.6-9.5c-19.7,1.1-39.5,2.7-59.2,4.1
	c-7.2,0.5-14.5,1-21.7,1.5c-0.9-10.4-4.4-12-10.1-12.3c-6.9-0.4-8.9,2.3-10.4,13.1c-5.5,0.5-11,0.9-16.8,1.4c-0.3-2-0.8-3.4-0.8-4.9
	c-0.1-5.6,0-11.2,0-17.1c47.2,0,94.3,0,142.2,0c-1.9,5.1-3.7,9.5-5.2,14c-1.7,5,0.6,9.9,5.2,11.9c4.6,2,9.3,0.7,11.8-4
	c2.2-4.1,3.9-8.4,5.5-12.7c1.5-3.9,2.5-7.9,4-11.8c3.6-9.1,1-14-8.7-15.5c-0.7-0.1-1.3-0.2-2-0.2c-10.3-0.4-20.6-1-30.9-1.1
	c-13-0.2-26,0-38.9-0.1c-1.5,0-4.2-1-4.3-1.8c-0.4-3.9-0.2-7.9-0.2-11.9c3.1-0.2,6.2-0.6,9.3-0.6c10.2-0.1,20.3,0,30.5,0
	c1.7,0,3.3,0.1,5,0c5.3-0.4,8.6-5.6,5.7-9.9c-1.2-1.8-4.3-3.1-6.7-3.2c-11.4-0.6-22.9-0.8-34.4-1c-3.3-0.1-6.6,0-10.1,0
	c0.1-1.4,0.4-2.4,0.3-3.3c-0.4-3.9-0.3-8.1-4-10.8c-3.2-2.3-6.7-2.8-10.3-0.9c-4.1,2.1-5.2,5.9-5,10.1
	C234.8,629.8,235.4,640.7,235.9,651.8z M261.2,807.9c-6.9,0-13.1-0.1-19.4,0c-2.6,0-2.9-1.3-2.9-3.4c-0.1-7-0.1-14-0.6-20.9
	c-0.7-8.9-1.6-17.9-2.8-26.7c-0.5-4-4.2-6.4-8.2-6c-6,0.5-9.3,4.9-9,12.1c0.6,13.8,1.2,27.6,1.9,41.3c0.2,3.1-0.5,4.4-4,4.4
	c-9.6-0.1-19.3,0.1-28.9,0.4c-2.6,0.1-5.3,0.4-7.8,1.3c-3.8,1.3-5.8,5.5-5.5,9.6c0.4,5.1,3.9,8.6,11.4,8.6c16.6,0,33.2-0.5,49.9-0.6
	c31.1-0.4,62.2-0.7,93.3-1c1.7,0,3.3,0,5-0.3c5.3-0.9,9.2-5.9,8.5-11.1c-0.5-4.4-5-7.7-10.1-7.7c-15.5,0.1-30.9,0.1-46.4,0.3
	c-3.6,0.1-4.9-0.7-4.8-4.6c0.3-14.1,0.2-28.3,0.2-42.4c0-3.4-0.7-6.5-3.8-8.7c-3.6-2.4-7.2-2.4-10.9-0.6c-3.7,1.8-5,5.1-5,9.1
	c0,13.8,0,27.6,0,41.4C261.2,803.9,261.2,805.7,261.2,807.9z M292.1,792.2c0.1,5.5,2.8,8.9,7.8,10c4,0.9,8-1.3,10-5.5
	c3.2-6.7,6.5-13.4,9.6-20.2c0.7-1.6,1.3-3.5,1.2-5.2c-0.2-4.4-3.1-7.3-7.8-8.6c-3.9-1-9.3,0.6-10.9,4.1c-3.5,7.6-6.6,15.5-9.8,23.3
	C292,790.9,292.1,791.8,292.1,792.2z M193.6,767.7c-7.6,0.1-11.3,4.7-9.9,11.2c0.8,3.7,1.3,7.5,2.5,11.2c1.3,4.4,2.9,8.8,4.8,13
	c1.8,3.7,6.4,5,10.8,3.6c3.8-1.2,7-4.7,6.2-7.9c-2.2-8.8-4.7-17.6-7.5-26.3C199.4,768.9,196.1,767.9,193.6,767.7z"/>
<path class="st0" d="M277.8,1006.9c-2.9,13.7-5.3,27.3-8.7,40.6c-5.8,22.2-15.7,42.7-28.9,61.5c-3.6,5.1-7.5,6.1-12.8,3.4
	c-5.1-2.6-6.5-7.4-3.7-12.4c6.4-11.8,13.2-23.5,19-35.6c7.9-16.6,12.1-34.4,14.4-52.7c0.7-5.6,0.6-5.8-5.1-6.2
	c-5.1-0.3-10.3-0.1-15.4-0.2c-1.8-0.1-3.6-0.6-5.4-1c-6.2-1.3-7.2-6.2-6.8-10c0.5-4.8,4.2-7.9,9.2-8c7.8-0.1,15.6,0,23.5,0.1
	c0.8,0,1.6,0,3.2,0c0-3.2-0.1-6.1,0-9.1c0.4-12.5,0.8-24.9,1.4-37.4c0.2-3.4-0.8-4.5-4.3-4.7c-4.6-0.3-9.2-1.3-13.7-2.6
	c-4.5-1.3-7.3-5.8-6.2-10c1.3-4.9,3-8.4,9.6-8.3c7.3,0.1,14.6,0.8,21.9,1.1c15.9,0.7,31.9,1.3,47.8,2.1c4.8,0.2,9.6,1.1,14.3,1.9
	c4.4,0.7,6,2.6,6.5,6.8c0.5,4.3-1.5,8.7-5.2,9.7c-4.2,1.2-8.7,1.6-13.3,2.3c0,15.5,0,31.6,0,47.9c6.2,0,12,0,17.7,0
	c4,0,7.6,1.3,9.8,4.8c2.7,4.2,1.4,12.5-5.7,13.7c-3.4,0.6-6.9,0.7-10.3,0.8c-3.6,0.1-7.3,0-11.6,0c0,2.2,0,3.8,0,5.4
	c-0.1,29.8-0.1,59.6-0.2,89.4c0,3.8-0.1,7.7-0.3,11.5c-0.3,5.7-3.7,9.1-9.1,9.3c-5.3,0.1-9.6-3.6-10.2-8.9c-0.1-1.3,0-2.7,0-4
	c0.1-31.9,0.1-63.9,0.2-95.8c0-5.3,0-5.3-5.5-5.3C288.5,1006.9,283,1006.9,277.8,1006.9z M299.1,936.4c-4.8-0.3-8.9-0.6-13.1-0.8
	c-4.7-0.3-4.6-0.2-4.8,4.3c-0.3,8.3-0.7,16.5-1.1,24.8c-0.3,6.5-0.7,12.9-0.8,19.4c0,1,1.3,3,2,3c5.9,0.3,11.8,0.1,17.8,0.1
	C299.1,970.1,299.1,953.4,299.1,936.4z"/>
<path class="st0" d="M166.1,943.2c-8.2,0-15.1,0.1-22.1,0c-4,0-7.6-1.3-9.6-5.1c-3.6-6.6,1.1-14.7,8.7-14.4
	c23.7,0.8,47.5,1.8,71.2,2.9c2.1,0.1,4.3,0.7,6.4,1.1c4.5,0.9,6.2,2.7,6.7,7.3c0.5,4.4-1.3,8.6-5.2,9.7c-3.3,0.9-6.8,1.2-10.2,1.1
	c-6.8-0.2-13.6-0.9-20.4-1.5c-2-0.2-3.4,0.1-4.5,2.1c-5.8,11.2-11.8,22.3-17.7,33.5c-0.1,0.2,0,0.6,0.1,1.2
	c8.9,0.4,17.8,0.7,26.7,1.2c5.5,0.3,10.9,0.6,16.4,1.2c5.9,0.6,8.3,2.4,8.7,8.3c0.5,7.7-0.1,15.6-0.5,23.3
	c-0.8,16.3-1.8,32.5-2.6,48.8c-0.4,7.4-2.6,10-9.9,10.1c-17.1,0.3-34.2,0.5-51.4,0.7c-6.3,0.1-10-3.1-10.7-9.4
	c-0.5-4.9-0.4-10-0.3-14.9c0.1-10.6,0.4-21.3,0.6-31.9c0-0.6-0.2-1.2-0.4-2.6c-1.3,1.4-2.2,2.2-2.9,3.2c-3.9,5.2-7.7,10.4-11.7,15.5
	c-2.6,3.3-7,4.5-10.7,3.2c-3.8-1.3-7.2-5.6-7-9.4c0.1-1.5,1-3.1,1.9-4.4c12.7-19.3,25.6-38.5,38-57.9
	C158.2,959.1,161.6,951.6,166.1,943.2z M166.6,1054c9.9,0,19.7-0.1,29.5,0c2.7,0,3.3-1.1,3.4-3.6c0.4-11.8,1-23.5,1.4-35.3
	c0.2-4.3,0-8.5,0-13.1c-10.5-0.5-20.7-1-31-1.5c-2.3-0.1-2.8,0.9-2.8,3c-0.1,5.5-0.5,10.9-0.5,16.4
	C166.5,1031.2,166.6,1042.5,166.6,1054z"/>
<path class="st0" d="M423,1026.3c-9.5,8.8-18.9,17.7-28.4,26.5c-4.9,4.5-9.3,5.5-14,3.1c-4.3-2.2-6.3-6.9-4.2-11.3
	c1.4-2.9,3.3-5.8,5.7-8c23.9-21.2,46.5-43.7,67.2-68.2c0.9-1.1,1.8-2.3,3.3-4.3c-2.5-0.1-4.2-0.3-5.9-0.2c-18.1,0.7-36.2,1.3-54.3,2
	c-5.8,0.2-9.2-1.8-10.8-6.7c-1.8-5.4,0.6-9.8,6.1-11.4c9.9-2.8,20-2.6,30.2-2.8c3.3-0.1,6.6-0.3,10.4-0.5c-0.4-1.6-0.6-2.9-1.1-4
	c-3.4-7.8-7.7-15.1-13.6-21.3c-2.8-2.9-5.2-6.3-4.4-10.6c0.7-4.1,3.2-7,7.2-8.2c4.1-1.2,8,0.5,10.3,3.5c6.3,8.3,12.2,17,17.9,25.8
	c1.8,2.8,2.7,6.5,3.2,9.9c0.6,3.8,2.3,4.6,5.9,4.6c8.3,0,16.6,0.4,24.9,0.7c3.2,0.1,6.6,0.4,7.7,4.1c1.1,3.7,0.3,7.2-2.4,10.2
	c-6.6,7.5-13.2,15-19.7,22.5c-5.7,6.5-11.4,13-17.7,20.1c7.5,4.6,14.8,8.9,21.9,13.4c6.6,4.2,13,8.6,19.3,13.2
	c4,2.9,4.3,7.9,1.3,12.3c-2.2,3.3-7.8,4.7-11.6,2.5c-7.9-4.5-15.8-9.2-23.7-13.9c-3.1-1.8-6.2-3.6-10.1-5.8c0,6.8-0.1,12.7,0,18.6
	c0.3,22.1,0.7,44.2,1,66.3c0,2.6-0.5,5.3-1,7.9c-0.7,4-3.5,5.8-7.3,6.2c-4,0.4-7.5-0.8-9.3-4.5c-1.3-2.7-2.1-6-2.2-9
	c-0.3-16.6-0.3-33.3-0.3-49.9c0-10.9,0-21.9,0-32.8C424.1,1026.6,423.6,1026.5,423,1026.3z"/>
<path class="st0" d="M535.2,979.2c0-10.6,0.2-20.4-0.1-30.2c-0.2-7,2.1-11,7.7-12c4.5-0.8,9.1,1.3,10.4,5.6c1.4,4.4,2.2,9,2.4,13.6
	c0.4,6.5,0.1,13-0.1,19.4c-0.1,2.8,0.9,3.7,3.7,3.8c8.6,0.1,17.3,0.5,25.9,0.8c1.6,0.1,3.3,0.6,4.9,1c4.9,1.3,6.2,2.8,6.6,7.4
	c0.4,4.2-1.7,8.4-5.5,9.6c-2.9,1-6.1,1.4-9.2,1.4c-7.5,0-14.9-0.4-22.4-0.9c-2.7-0.2-3.3,0.8-3.3,3.4c0.1,26.4,0.1,52.9,0.1,80
	c4.8,0.4,8.7,0.5,12.5,1c8.4,0.9,16.8,1.5,25.1,3c5.7,1,8.5,5.4,7.7,10.3c-0.8,5.3-4.9,8.4-10.8,8.2c-5.6-0.2-11.3-0.8-16.9-1
	c-12.1-0.4-24.2-0.8-36.4-1c-18.8-0.4-37.6-0.6-56.3-1.1c-8.5-0.2-12.7-7.5-8.4-14.5c0.9-1.5,2.8-3.2,4.5-3.5c5.7-1,11.4-2,17.2-2
	c13-0.1,25.9,0.3,38.9,0.7c3.6,0.1,4.4-1.1,4.4-4.5c-0.4-25.1-0.7-50.2-0.9-75.3c0-3.4-1.4-3.8-4.2-3.7c-11,0.2-21.9,0.4-32.9,0.4
	c-7.3,0-11.4-4.2-10.8-10.7c0.4-3.7,1.9-6.8,6-7.6c4.1-0.7,8.2-1.4,12.3-1.5C516.5,979,526,979.2,535.2,979.2z"/>
<path class="st1" d="M946.2,254.3c-2.4-1.4-4.8-2.8-7.2-4.1c-1-0.6-2.1-1.2-3.2-1.5c-3.2-0.9-6.9-1.1-8.6,1.8c-1,1.6,0,5.2,1.2,7.2
	c5.4,8.8,11.6,17,16.7,26c11.3,19.8,21.5,40.1,29,61.6c2.2,6.2,3.9,12.6,5.9,18.9c-1.3-0.4-2.6-0.5-3.8-1.1
	c-9.9-5.4-20.7-6.8-31.7-6.8c-10.4,0-20.8,1-31.2,1.8c-7.7,0.6-15.5,1-23.2,2.3c-10.2,1.8-20.4,4.3-30.5,6.8
	c-19.4,4.9-36.7,13.5-50.3,28.5c-5.7,6.2-10.8,12.9-16.2,19.3c-1.4-3.2-2.7-6.3-4.1-9.5c-4.9-11.6-9.9-23.2-14.8-34.8
	c-1.2-2.8-3.4-4.5-6.3-3c-2.6,1.3-3.4,3.6-2.5,6.7c2.1,7.3,4.1,14.6,5.7,22.1c1.8,8.2,3.2,16.6,4.4,24.9c1.7,11.3,2.9,22.6,4.7,33.9
	c2.2,13.8,4.5,27.5,4.2,41.5c-0.3,12.8-1,25.5-2.1,38.2c-0.5,5.5-2.2,10.9-3.3,16.4c-1.4-1.5-3.3-2.9-4.2-4.7
	c-7.3-15.9-18.5-28.2-33.5-37.1c0.5-2.1,0.9-4.2,1.5-6.3c2.4-8.2,0.6-12.6-7.1-16.1c-2.8-1.3-5.9-2.7-8.9-3
	c-15.6-1.8-31.4-2.2-47-0.9c-5.4,0.5-10.8,2.7-16,4.8c-3.5,1.4-5.8,4.4-5.2,8.7c0.6,4.4,1.3,8.8,2,13.2
	c-10.7,4.9-21.1,10.5-28.4,20.1c-3.3,4.3-5.7,9.2-8.5,13.8c-1.3-7.6-3.4-15.1-3.8-22.7c-0.5-9.4,0.5-18.9,0.7-28.3
	c0.3-18.1,1.5-36,5-53.8c4.3-22.3,8.5-44.6,17.3-65.6c0.6-1.3,0.9-2.9,0.7-4.3c-0.4-2.9-1.6-5.4-5-5.9c-3.3-0.5-4.8,1.4-5.9,4.1
	c-4,10.2-8.5,20.2-11.8,30.6c-3.8,11.9-6.6,24.2-9.9,36.3c-1.9-12.5-5-24.6-11.9-35.5c-9.3-14.7-22.1-25.6-37.6-33
	c-10.3-4.9-20.9-9.2-31.7-12.8c-10.5-3.5-21.3-6-32-8.6c-5.6-1.4-11.3-2.3-17.1-2.8c-6.7-0.6-13.6-1.3-20.3-0.7
	c-8.5,0.8-16.9,2.9-25.3,4.5c-10.5,2-20,5.9-27.5,13.7c-1,1-2.4,1.5-3.7,2.2c3.7-10.8,7.3-21.6,11.2-32.3c2.3-6.4,5-12.7,7.7-18.9
	c1.6-3.6,3.9-7,5.5-10.6c4.5-10.1,8.8-20.4,13.2-30.6c2-4.7,1.7-9-2.6-12.4c5.6-11.5,11.5-22.8,16.8-34.4c3-6.6,5.6-13.5,7.4-20.5
	c3.8-14.7,2.3-28.2-7.9-40.7c-11.2-13.7-21.5-28.3-31.4-43c-6-9-9.6-19.3-9.9-30.4c9.3-2.8,17.1,0.8,23.7,6.6
	c14.1,12.3,30.1,21,47.8,26.9c11,3.7,21.7,8.1,32.7,11.8c13.5,4.5,27.3,8.3,41.7,8.6c7.2,0.1,14.5-1,21.7-1.9
	c12.1-1.5,24.2-3.5,36.4-4.8c10.9-1.1,21.8-1.7,32.7-2.1c15.4-0.5,30.9-1.2,46.3-0.7c21.5,0.7,42.9,2.8,64.2,6.4
	c12.2,2.1,24.5,4.2,36.9,4.8c18.1,0.9,35.3-3.9,51.9-11.4c23.5-10.7,45-24.7,67.1-38c9.6-5.8,19.4-11.8,30.9-13.3
	c2.7-0.3,6.1,0.3,8.2,1.9c4.9,3.7,8.9,8.5,11,14.4c-1.4,1.2-3,2.3-4.1,3.8c-2.1,2.8-3.7,5.9-5.7,8.7c-7.4,10-15.1,19.8-22.2,30
	c-10.6,15.2-16.1,32-13.8,50.7c0.7,5.7,2.1,11.5,4.3,16.8c4.5,11.1,9.8,21.8,14.7,32.7C942.4,244.1,944.2,249.3,946.2,254.3z
	 M624.2,294.2c3.9,2.5,6.7,2.8,8.3,0.4c2.4-3.5-0.6-5.5-2.6-7.5c-2.7-2.9-5.5-5.8-8.5-8.4c-1.8-1.5-4.1-3.2-6.4-3.4
	c-9.5-0.9-19.1-1.5-28.7-1.8c-3.8-0.1-7.6,0.4-11.4,0.8c-5.1,0.6-10.4,0.6-15.2,2.1c-7.1,2.2-13.8,5.4-20.6,8.3
	c-2.6,1.1-2.9,3.8-2.1,6c0.3,0.8,2.9,0.8,4.5,0.9c1.1,0.1,2.3-0.3,3.4-0.5c21.5,9.8,44,11.4,67,7.6
	C616.1,298.1,620.1,295.8,624.2,294.2z M865.8,294.8c1.8,0.1,3.6,0.3,5.3,0.3c2.5,0.1,5.1-0.6,5.4-3.2c0.2-1.7-0.9-4.1-2.3-5.4
	c-1.7-1.7-4.1-3-6.4-3.8c-12.9-4.2-26-7.7-39.8-7.5c-6.7,0.1-13.3,0.3-20,0c-13.9-0.7-21.2,8.2-27.6,18.5c-0.5,0.8-0.2,2.7,0.4,3.3
	c0.8,0.7,2.5,1.1,3.5,0.8c1.1-0.3,1.9-1.7,2.8-2.6c1.1,0.6,2.1,1.5,3.3,1.8c19.5,4.8,39.1,7.2,59,2.8
	C855.1,298.6,860.4,296.5,865.8,294.8z M729.3,277.6c-1.1-1.4-1.9-3.4-3.3-4.1c-2.2-1-4.3,0.3-5.2,2.5c-0.9,2.1-2,4.4-1.9,6.6
	c0.1,1.5,1.7,3.6,3.1,4.2c1.1,0.5,3.6-0.6,4.4-1.8C727.7,283.1,728.1,280.5,729.3,277.6z M679.6,280.4c-0.1,0-0.1,0-0.2,0
	c0.2,1.5,0.2,3,0.6,4.4c0.7,2.3,2.1,3.8,4.7,3.4c2.5-0.4,3.9-2,3.7-4.5c-0.2-2.6-0.6-5.3-1.7-7.6c-0.5-1.1-3-1.7-4.5-1.6
	c-0.9,0.1-2,1.8-2.6,3C679.3,278.3,679.6,279.4,679.6,280.4z"/>
<path class="st2" d="M560.5,638.2c-7.1-2.7-14.1-5.8-21.4-7.9c-4.9-1.4-10.1-1.7-15.2-1.9c-12.5-0.3-24.9-0.1-37.4-0.2
	c-11.4-0.1-21.8-4.4-32.2-8.1c-17.1-6.1-31.8-16-44.4-28.8c-5.4-5.5-10-12.1-13.9-18.8c-11.8-20.5-19.2-42.4-18.8-66.3
	c0.5-32.8,3.7-65.4,11.9-97.3c0.7-2.7,1.8-5.3,2.8-7.9c2.4-1,4.9-1.8,7.3-2.9c29-13.9,59.4-18.9,91.4-14.1
	c22.7,3.4,43.6,11.4,62.6,24.1c13.2,8.8,25,19.3,34.7,31.8c5.5,7.1,11.7,13.9,14.4,22.9c0.5,1.6,2.3,2.9,3.5,4.3
	c-0.4,5.4-0.9,10.8-1.1,16.2c-0.4,12.6-1.3,25.3-0.8,37.9c1,26.3,7.2,51.3,21.1,74c7.7,12.6,18,23.1,30.7,30
	c21.3,11.6,44.5,13.7,68.3,8.9c16.4-3.3,30.9-11,44.4-20.8c15.3-11.1,25.6-25.3,29.7-44c7.7-34.6,9.8-69.4,4.6-104.5
	c-1.1-7.2-2-14.5-3-21.7c0.8-0.7,1.8-1.3,2.5-2.2c6.7-8.9,14.2-17,22.9-24.1c23.3-18.8,49.9-28.3,79.7-28.7
	c8.1-0.1,16.2,0.5,24.3,1.1c7.4,0.5,14.8,1.3,22.2,2.4c13.8,2.2,26.9,7,39.7,12.6c2.1,11.1,4.4,22.2,6.1,33.3
	c3.9,24.9,5.7,49.9,4.3,75.1c-2.2,40.5-21.2,71-56.6,91c-22.6,12.7-47.2,18.4-72.9,20.2c-13.1,0.9-26.2,1.5-39.3,2.3
	c-5.1,0.3-9.4,1.8-11.6,7c-2.1,5-1.1,8.1,3.9,10.3c1.7,0.7,3.4,1.2,5.2,1.8c1.4,1.8,2.8,3.7,4.3,5.4c11.8,12.8,24.1,25.2,35.4,38.5
	c5.8,6.9,9.9,15.2,14.7,23c4.7,7.6,9.4,15.3,14.1,22.9c-9,3.4-17.7,7.3-25.4,13.3c-19.7,15.4-27.4,45-17.3,67.9
	c5.5,12.5,15.5,18.9,29.1,18.3c11.5-0.5,22-4.9,32.6-8.7c1.2-0.4,2.5-0.8,3.8-1.2c0.4,13.2-7.9,26.9-19,29.6
	c-8.8,2.1-17.9,3.5-27,4.1c-11.8,0.8-23.4-1.9-34.8-5c-11.5-3.1-22.9-7-32.9-13.8c-8.3-5.5-16.3-11.4-24.4-17.2
	c-23.3-16.8-45.6-34.9-66.6-54.5c-14.3-13.4-28.1-27.4-41.7-41.5c-13.2-13.6-25.7-27.8-40.6-39.6c-17.2-13.6-33.6-28.2-52.4-39.5
	C575.1,643.1,568.5,639,560.5,638.2z"/>
<path class="st1" d="M560.5,638.2c8,0.8,14.7,5,21.3,9c18.8,11.3,35.2,26,52.4,39.5c15,11.8,27.5,26,40.6,39.6
	c13.6,14.1,27.4,28.1,41.7,41.5c21,19.6,43.3,37.7,66.6,54.5c8.1,5.8,16.1,11.7,24.4,17.2c10,6.7,21.4,10.6,32.9,13.8
	c11.4,3.1,22.9,5.8,34.8,5c9-0.6,18.1-2,27-4.1c11.1-2.7,19.4-16.4,19-29.6c11.9-4.9,23.8-9.9,35.7-14.8c0.6-0.3,1.4-0.3,1.9-0.7
	c6.1-5.1,12.2-3.3,18.5-0.5c16.5,7.4,33.2,14.3,49.4,22.3c16.7,8.2,32,18.6,45.8,31.3c11.2,10.3,16.7,23.4,19.5,37.8
	c1.4,7.1,1.7,14.5,2.1,21.7c0.5,9.7,1.1,19.5,0.7,29.2c-0.4,8.9-1.9,17.7-3.2,26.6c-0.7,4.4-2,8.6-3.1,13c-1,0.5-2.1,1-3.1,1.6
	c-17.1,9.7-34.1,9.5-50.5-1.4c-4.8-3.2-8.6-8.1-12.8-12.2c0,0,0.1,0.1,0.1,0.1c-0.3-0.4-0.7-0.7-1-1.1c-2.9-7.8-5.3-16-8.9-23.5
	c-8.1-16.6-21.3-26.4-40.2-28.6c-13-1.5-25.8,0-38.6,1.7c-10.7,1.4-21.3,2.9-31.9,4.6c-6.5,1.1-13,2.6-19.4,4
	c-9.1,1.9-18.1,3.8-27.2,5.9c-3.2,0.7-6.4,1.9-9.4,3.1c-3.4,1.4-5.5,0.8-7.1-2.7c-1.4-3.1-3.6-5.4-7.6-5.5c-7-0.1-11.8,5.9-10,12.7
	c0.4,1.4,1.1,2.7,1.8,4.1c7.2,15,9.9,31,8.6,47.4c-1.1,13.6-5.2,26.7-10.6,39.2c-4.1,9.6-8.6,19-12.9,28.4
	c-9.2,3.1-18.5,4.5-28.3,3.4c-19.2-2.1-34.4-11.1-46.4-26c-1.2-1.5-2.7-2.7-4.1-4c-1.4-9.3-2.4-18.7-4.3-27.9
	c-4-19.4-14.8-34.8-30.9-46c-12.2-8.5-25.3-15.9-37.8-24c-13.9-9.1-27.3-18.8-39.2-30.5c-6.1-5.9-12-11.9-17.9-18
	c-0.9-1-1.3-2.5-1.9-3.8c1.4-0.6,2.8-1.7,4.3-1.9c17.7-2,30.8-12,40.9-25.5c8.2-11,7.7-23.7,0.7-35.7c-7.8-13.5-20.2-22.2-32.9-30.5
	c-17.8-11.5-36.9-20.4-57.1-26.5c-13.6-4.2-27.5-7.3-41.4-10.5c-6.6-1.5-11.9,2.5-13.1,9.1c-0.9,5.1,3.3,10.5,9.3,11.5
	c19.5,3.5,38.6,8.4,56.7,16.3c11.7,5.1,22.7,11.6,34,17.6c1,0.6,1.7,1.8,2.5,2.8c-1.3,0.6-2.6,1.4-4,1.9
	c-12.6,5.3-21.9,13.9-25.1,27.5c-1.5,6.6-1.2,13.7-1.8,20.6c-5.6-0.2-11.2-0.4-16.8-0.7c-9.1-0.5-18.2-1.2-27.3-1.8
	c-18.5-1.4-36.9-3.3-54.6-9.6c-13.6-4.8-21.8-13.1-21.5-28c0.2-12.4,1-24.7,1.7-37.1c1.1-20.5,7.3-40,12.2-59.7
	c1-4.2,2.6-8.2,4.1-12.2c6.1-16.5,13-32.8,24.3-46.5c8.6-10.5,18.2-20.2,32-24.5c9.9-3.1,18.9-1.9,27.6,3.4c4.6,2.8,6,2.8,9.2-0.2
	c3.2-3.1,3.6-6.4,1.1-10.3C561.5,639.9,561,639,560.5,638.2z"/>
<path class="st1" d="M898.5,734.8c-4.7-7.6-9.4-15.3-14.1-22.9c-4.8-7.7-8.9-16.1-14.7-23c-11.3-13.3-23.6-25.7-35.4-38.5
	c-1.6-1.7-2.9-3.6-4.3-5.4c10.8-0.4,21.5-1,32.3-1.2c2.6-0.1,5.2,0.9,7.7,1.7c26.8,8.6,51.6,20.8,73.1,39.3
	c11.1,9.6,21.6,19.7,28.3,33c13.6,27,6.1,56.9-19.9,72.8c-14.6,9-30.9,14.3-47,20c-0.1-1.3-0.2-2.6-0.2-4c0.1-10-3.2-18.8-10.8-25.2
	c-4.9-4.1-10.8-6.9-16.2-10.3c0.9-1.5,1.5-3.3,2.7-4.6c6.9-7.9,16.3-11.8,26-14.9c8.3-2.7,16.9-4.8,25.3-7.1
	c5.6-1.5,8.4-6.2,6.9-11.8c-1.1-4.1-6.4-7-11.3-5.8C917.3,729.5,907.9,732.2,898.5,734.8z"/>
<path class="st3" d="M605.6,467c-1.2-1.4-3-2.7-3.5-4.3c-2.7-9-8.9-15.8-14.4-22.9c-9.7-12.5-21.5-23.1-34.7-31.8
	c-19-12.6-39.9-20.6-62.6-24.1c-32-4.8-62.3,0.2-91.4,14.1c-2.4,1.1-4.9,2-7.3,2.9c0.6-2.7,1-5.5,1.7-8.2c2.3-8.1,4.7-16.1,7.2-24.1
	c0.8-2.6,2.1-5,3.2-7.6c1.2-0.7,2.7-1.2,3.7-2.2c7.6-7.8,17.1-11.8,27.5-13.7c8.4-1.6,16.8-3.7,25.3-4.5c6.7-0.6,13.5,0.1,20.3,0.7
	c5.7,0.5,11.5,1.4,17.1,2.8c10.7,2.6,21.5,5.1,32,8.6c10.8,3.6,21.4,7.9,31.7,12.8c15.5,7.5,28.3,18.3,37.6,33
	c6.9,10.9,10,23,11.9,35.5c-0.9,6.1-1.8,12.3-2.8,18.4C607.3,457.4,606.4,462.2,605.6,467z"/>
<path class="st2" d="M413.9,87.2c0.3,11.1,3.9,21.4,9.9,30.4c9.9,14.7,20.1,29.3,31.4,43c10.3,12.5,11.7,26,7.9,40.7
	c-1.8,7-4.4,13.9-7.4,20.5c-5.3,11.6-11.2,23-16.8,34.4c-4.9,0.6-7.9,4-10.8,7.4c-2,2.4-4.2,4.8-5.9,7.4c-1.8,2.8-3.5,2-5.3,0.3
	c-0.8-0.8-1.3-1.9-1.8-2.9c-10.6-25.1-17.1-51.2-19.7-78.4c-2.4-25.7-1.5-51.1,2.5-76.5c0.9-5.8,2.7-11.7,5-17.1
	C404.9,91.9,408.3,88,413.9,87.2z"/>
<path class="st3" d="M990.8,404.2c-12.8-5.6-25.8-10.4-39.7-12.6c-7.3-1.2-14.8-1.9-22.2-2.4c-8.1-0.6-16.2-1.2-24.3-1.1
	c-29.8,0.4-56.5,9.8-79.7,28.7c-8.7,7-16.2,15.2-22.9,24.1c-0.6,0.9-1.6,1.4-2.5,2.2c-2.2-9.4-4.3-18.7-6.5-28.1
	c5.4-6.5,10.6-13.1,16.2-19.3c13.6-15,31-23.6,50.3-28.5c10.1-2.5,20.2-5,30.5-6.8c7.6-1.4,15.4-1.8,23.2-2.3
	c10.4-0.8,20.8-1.8,31.2-1.8c10.9,0,21.8,1.4,31.7,6.8c1.1,0.6,2.5,0.8,3.8,1.1C983.6,377.5,987.2,390.9,990.8,404.2z"/>
<path class="st2" d="M946.2,254.3c-2-5-3.8-10.2-6-15.1c-4.8-10.9-10.2-21.7-14.7-32.7c-2.2-5.3-3.6-11.1-4.3-16.8
	c-2.4-18.7,3.2-35.5,13.8-50.7c7.1-10.2,14.9-20,22.2-30c2.1-2.8,3.7-5.9,5.7-8.7c1.1-1.5,2.7-2.5,4.1-3.8
	c9.3,28.3,10.4,57.4,8.6,86.7c-0.9,15-2.9,29.8-7.5,44.1c-3.3,10.4-7.2,20.4-15.9,27.7C948.9,258,949.1,258.3,946.2,254.3z"/>
<path class="st2" d="M728.9,1041.5c1.4,1.3,2.9,2.5,4.1,4c11.9,15,27.1,23.9,46.4,26c9.8,1.1,19.1-0.3,28.3-3.4
	c-3.3,9.4-9.5,16.7-17,22.8c-9.7,7.9-20.8,13.1-33.7,13c-3.7,0-7.6-0.8-11.2-1.8c-5.6-1.6-9.9-5.2-11.3-10.9
	c-1.8-7.4-3-14.9-3.8-22.5C729.7,1059.8,729.5,1050.6,728.9,1041.5z"/>
<path class="st2" d="M570,868.1c0.5-6.9,0.2-14,1.8-20.6c3.2-13.6,12.4-22.2,25.1-27.5c1.3-0.6,2.6-1.3,4-1.9
	c1.8,0.7,3.9,1.1,5.4,2.3c5.1,4.2,10.4,8.3,15,13.1c9.2,9.5,7.5,20.2-3.9,26.9c-9.2,5.4-19.3,7.9-29.9,8.3
	C581.6,868.7,575.8,868.2,570,868.1z"/>
<path class="st2" d="M1022,978.3c4.2,4.1,8,9,12.8,12.2c16.4,10.9,33.4,11.1,50.5,1.4c1-0.6,2-1.1,3.1-1.6
	c-3,14.2-8.9,26.7-20.7,35.7c-10.7,8.2-26.8,5.3-33-6.9c-4.1-8-6.6-16.9-9.3-25.6C1023.8,988.6,1023.1,983.4,1022,978.3z"/>
<path class="st2" d="M877.1,771.1c5.4,3.4,11.3,6.3,16.2,10.3c7.7,6.4,10.9,15.2,10.8,25.2c0,1.3,0.1,2.6,0.2,4
	c-6.8,3.7-14.2,5.4-21.9,5.7c-4.3,0.2-7.1-2.2-9.2-5.7c-6.2-10.4-5-29.4,2.5-38.8C876.2,771.5,876.7,771.3,877.1,771.1z"/>
<path class="st2" d="M1021.1,977.3c0.3,0.4,0.7,0.7,1,1.1C1021.8,978,1021.4,977.6,1021.1,977.3z"/>
<path class="st2" d="M235.9,651.8c-0.5-11.1-1-22.1-1.5-33c-0.2-4.2,1-7.9,5-10.1c3.6-1.9,7.1-1.4,10.3,0.9c3.7,2.6,3.6,6.9,4,10.8
	c0.1,0.9-0.2,1.9-0.3,3.3c3.5,0,6.8-0.1,10.1,0c11.5,0.3,22.9,0.4,34.4,1c2.3,0.1,5.5,1.4,6.7,3.2c2.9,4.4-0.3,9.5-5.7,9.9
	c-1.7,0.1-3.3,0-5,0c-10.2,0-20.3-0.1-30.5,0c-3.1,0-6.2,0.4-9.3,0.6c0,4-0.3,8,0.2,11.9c0.1,0.8,2.8,1.8,4.3,1.8
	c13,0.1,26-0.1,38.9,0.1c10.3,0.2,20.6,0.7,30.9,1.1c0.7,0,1.3,0.1,2,0.2c9.6,1.4,12.3,6.3,8.7,15.5c-1.5,3.9-2.5,7.9-4,11.8
	c-1.7,4.3-3.3,8.7-5.5,12.7c-2.5,4.7-7.3,6-11.8,4c-4.6-2-6.9-6.9-5.2-11.9c1.5-4.5,3.3-8.9,5.2-14c-47.9,0-95,0-142.2,0
	c0,5.9,0,11.5,0,17.1c0,1.5,0.4,2.9,0.8,4.9c5.7-0.5,11.3-0.9,16.8-1.4c1.5-10.8,3.5-13.5,10.4-13.1c5.7,0.4,9.2,1.9,10.1,12.3
	c7.2-0.5,14.4-1,21.7-1.5c19.7-1.4,39.4-2.9,59.2-4.1c7.2-0.4,9.8,5,9.6,9.5c-0.2,4.4-2.2,6.7-6.6,7.1c-26.3,2.4-52.6,4.8-78.9,7.1
	c-3.9,0.3-4.9,2-2.3,4.9c2.1,2.2,5.3,4.3,8.3,4.7c9.5,1.2,19.2,2.1,28.8,2.1c17.6-0.1,35.2-0.8,52.8-1.5c3.8-0.1,7.1,0.8,9.1,3.9
	c2.3,3.4,2.4,7.3-0.1,10.8c-0.9,1.3-2.3,2.7-3.7,3c-4.5,1.1-9.1,2.4-13.6,2.4c-11.6,0.1-23.3-0.4-34.9-0.6
	c-12.8-0.3-25.6-0.6-38.4-1c-7.9-0.3-15-2.7-20.7-8.4c-4-4-6.9-8.6-7.5-14.3c-0.4-3.1-1.4-4.4-4.7-3.8c-4.1,0.7-8.3,1-12.4,1.3
	c-2.6,0.1-3.7,0.9-3.8,3.8c-0.8,13.8-1.8,27.5-3,41.3c-2.1,23.5-6.4,46.7-12.2,69.6c-0.7,2.8-2.5,4.2-5.2,4.5
	c-3.9,0.4-7.8,0.1-10.1-3.7c-2-3.2-2.4-6.3-1.5-10.3c3.4-15.8,6.4-31.6,8.8-47.5c3.3-22.4,4.6-45,4.5-67.6
	c-0.1-13.3-0.1-26.6-0.3-39.8c-0.1-7.5,1.4-9.5,8.9-10.2c5.1-0.5,10.3-0.6,15.4-0.6c17.6-0.1,35.2-0.1,52.9-0.1
	C234.2,652.4,234.9,652,235.9,651.8z"/>
<path class="st2" d="M261.2,807.9c0-2.2,0-4,0-5.8c0-13.8,0-27.6,0-41.4c0-4,1.3-7.2,5-9.1c3.7-1.8,7.3-1.8,10.9,0.6
	c3.2,2.1,3.8,5.2,3.8,8.7c0,14.1,0,28.3-0.2,42.4c-0.1,3.9,1.3,4.7,4.8,4.6c15.5-0.2,30.9-0.2,46.4-0.3c5.1,0,9.6,3.3,10.1,7.7
	c0.6,5.1-3.2,10.2-8.5,11.1c-1.6,0.3-3.3,0.2-5,0.3c-31.1,0.4-62.2,0.7-93.3,1c-16.6,0.2-33.2,0.6-49.9,0.6
	c-7.5,0-10.9-3.5-11.4-8.6c-0.4-4.1,1.6-8.3,5.5-9.6c2.5-0.8,5.2-1.2,7.8-1.3c9.6-0.3,19.3-0.5,28.9-0.4c3.5,0,4.2-1.3,4-4.4
	c-0.7-13.8-1.3-27.6-1.9-41.3c-0.3-7.1,3-11.5,9-12.1c4-0.4,7.7,2.1,8.2,6c1.1,8.9,2.1,17.8,2.8,26.7c0.5,7,0.5,14,0.6,20.9
	c0,2.1,0.3,3.5,2.9,3.4C248,807.8,254.3,807.9,261.2,807.9z"/>
<path class="st2" d="M292.1,792.2c0-0.4-0.1-1.3,0.1-2c3.2-7.8,6.2-15.7,9.8-23.3c1.6-3.5,7-5.1,10.9-4.1c4.6,1.2,7.5,4.1,7.8,8.6
	c0.1,1.7-0.5,3.6-1.2,5.2c-3.1,6.8-6.4,13.5-9.6,20.2c-2,4.2-6,6.4-10,5.5C294.9,801.1,292.2,797.8,292.1,792.2z"/>
<path class="st2" d="M193.6,767.7c2.5,0.2,5.8,1.2,6.9,4.8c2.7,8.7,5.2,17.4,7.5,26.3c0.8,3.2-2.4,6.7-6.2,7.9
	c-4.4,1.4-9,0.1-10.8-3.6c-2-4.2-3.5-8.6-4.8-13c-1.1-3.6-1.7-7.4-2.5-11.2C182.3,772.4,186,767.8,193.6,767.7z"/>
<path class="st0" d="M793.1,415c2.2,9.4,4.3,18.7,6.5,28.1c1,7.2,1.9,14.5,3,21.7c5.2,35.1,3.1,69.9-4.6,104.5
	c-4.1,18.7-14.5,32.9-29.7,44c-13.5,9.8-27.9,17.4-44.4,20.8c-23.7,4.8-46.9,2.7-68.3-8.9c-12.8-6.9-23-17.5-30.7-30
	c-13.9-22.7-20.1-47.7-21.1-74c-0.5-12.6,0.4-25.2,0.8-37.9c0.2-5.4,0.7-10.8,1.1-16.2c0.8-4.8,1.7-9.6,2.5-14.4
	c1-6.1,1.9-12.3,2.8-18.4c3.3-12.1,6.1-24.4,9.9-36.3c3.3-10.4,7.8-20.4,11.8-30.6c1.1-2.7,2.6-4.6,5.9-4.1c3.5,0.5,4.6,3,5,5.9
	c0.2,1.4-0.1,3-0.7,4.3c-8.8,21.1-13,43.4-17.3,65.6c-3.4,17.8-4.7,35.7-5,53.8c-0.2,9.4-1.2,18.9-0.7,28.3
	c0.4,7.6,2.5,15.2,3.8,22.7c0.1,1.3,0,2.7,0.2,4c4,22.7,15.1,41,34.2,54.1c5.1,3.5,10.8,6.7,16.6,8.8c14.4,5.1,29,4.8,44.2,2.6
	c26.2-3.7,53.1-26.7,60.2-58.1c0.3-1.2,0-2.6,0-3.9c1.1-5.5,2.9-10.9,3.3-16.4c1-12.7,1.8-25.5,2.1-38.2c0.3-14-2-27.7-4.2-41.5
	c-1.8-11.3-3-22.6-4.7-33.9c-1.3-8.3-2.7-16.7-4.4-24.9c-1.6-7.4-3.6-14.8-5.7-22.1c-0.9-3.1-0.1-5.4,2.5-6.7c3-1.5,5.1,0.3,6.3,3
	c5,11.6,9.9,23.2,14.8,34.8C790.4,408.7,791.7,411.8,793.1,415z"/>
<path class="st2" d="M779,551.3c0,1.3,0.3,2.7,0,3.9c-7.2,31.4-34,54.3-60.2,58.1c-15.2,2.2-29.8,2.5-44.2-2.6
	c-5.8-2.1-11.5-5.2-16.6-8.8c-19.1-13.1-30.1-31.4-34.2-54.1c-0.2-1.3-0.2-2.6-0.2-4c2.8-4.6,5.3-9.5,8.5-13.8
	c7.3-9.6,17.7-15.2,28.4-20.1c3.7,6.7,9.1,11.3,16.4,13.4c4.3,1.2,8.7,2.1,13.2,2.8c2.8,0.4,4.2,1.5,4,4.5
	c-0.6,8.8-1.1,17.6-1.4,26.4c-0.1,2.4-1.4,2.7-3.2,2.6c-3.2,0-6.3-0.1-9.5,0c-6.5,0.2-10.6,4.2-10.6,10.1c0,6,4,10.1,10.5,10.2
	c15.1,0.2,30.3,0.1,45.4,0c6.5-0.1,10.5-4.2,10.5-10.2c0-5.9-4.1-9.9-10.6-10.1c-4.2-0.1-8.3-0.2-12.5,0c-3.4,0.2-4.7-0.7-4.4-4.4
	c0.7-6.8,0.9-13.6,1.1-20.4c0.2-7.7,0-7.6,7.5-7.9c9.8-0.3,17.1-4.6,21.5-13.5c0.7-1.4,1.8-2.6,2.8-3.8c15,8.9,26.2,21.2,33.5,37.1
	C775.6,548.5,777.5,549.8,779,551.3z"/>
<path class="st0" d="M741.3,509.6c-0.9,1.3-2.1,2.4-2.8,3.8c-4.4,9-11.7,13.2-21.5,13.5c-7.5,0.3-7.4,0.2-7.5,7.9
	c-0.2,6.8-0.4,13.6-1.1,20.4c-0.4,3.7,1,4.6,4.4,4.4c4.1-0.2,8.3-0.1,12.5,0c6.5,0.2,10.6,4.2,10.6,10.1c0,6-4,10.1-10.5,10.2
	c-15.1,0.1-30.3,0.1-45.4,0c-6.5-0.1-10.5-4.2-10.5-10.2c0-5.9,4.1-9.8,10.6-10.1c3.2-0.1,6.3-0.1,9.5,0c1.9,0,3.1-0.3,3.2-2.6
	c0.4-8.8,0.9-17.6,1.4-26.4c0.2-3-1.2-4-4-4.5c-4.4-0.7-8.9-1.6-13.2-2.8c-7.3-2.1-12.7-6.7-16.4-13.4c-0.7-4.4-1.4-8.8-2-13.2
	c-0.6-4.3,1.6-7.3,5.2-8.7c5.2-2.1,10.6-4.3,16-4.8c15.7-1.3,31.4-0.9,47,0.9c3,0.4,6.1,1.7,8.9,3c7.7,3.6,9.4,7.9,7.1,16.1
	C742.2,505.4,741.8,507.5,741.3,509.6z"/>
<path class="st0" d="M787.3,295.2c-0.9,0.9-1.7,2.3-2.8,2.6c-1,0.3-2.7-0.1-3.5-0.8c-0.6-0.6-0.9-2.5-0.4-3.3
	c6.4-10.3,13.7-19.2,27.6-18.5c6.6,0.3,13.3,0.1,20,0c13.8-0.3,26.9,3.2,39.8,7.5c2.3,0.8,4.7,2.1,6.4,3.8c1.3,1.3,2.5,3.7,2.3,5.4
	c-0.3,2.7-2.9,3.3-5.4,3.2c-1.8-0.1-3.6-0.2-5.3-0.3c-5.3-0.4-10.6-1.1-15.9-1c-3.4,0-6.8,1-10.1,1.8c-3,0.7-6,2.2-9,2.4
	c-5.1,0.3-10.3-0.2-15.4-0.3c-5.3-0.1-10.1-1.5-14.2-5.2c-1-0.9-2.8-1.7-3.9-1.4C793.9,292.2,790.6,293.8,787.3,295.2z"/>
<path class="st0" d="M544.9,291.2c-1.1,0.2-2.3,0.5-3.4,0.5c-1.6-0.1-4.2-0.1-4.5-0.9c-0.8-2.2-0.5-4.8,2.1-6
	c6.8-2.9,13.6-6.1,20.6-8.3c4.8-1.5,10.1-1.6,15.2-2.1c3.8-0.4,7.6-1,11.4-0.8c9.6,0.4,19.2,0.9,28.7,1.8c2.2,0.2,4.6,1.9,6.4,3.4
	c3,2.6,5.8,5.5,8.5,8.4c2,2.1,5,4.1,2.6,7.5c-1.6,2.4-4.4,2.1-8.3-0.4c-2.5-2.4-4.9-4.9-7.5-7.2c-1.4-1.2-2.7-1.2-4,0.8
	c-3,4.5-7.6,7.3-12.7,8c-11.1,1.4-22.2,1.6-32.6-3.5C560.1,288.7,552.7,286.3,544.9,291.2z"/>
<path class="st2" d="M544.9,291.2c7.8-4.9,15.2-2.5,22.5,1.1c10.4,5.2,21.5,5,32.6,3.5c5.1-0.7,9.7-3.5,12.7-8c1.3-2,2.6-2,4-0.8
	c2.6,2.3,5,4.8,7.5,7.2c-4.1,1.6-8.1,3.9-12.3,4.5C588.9,302.6,566.4,300.9,544.9,291.2z"/>
<path class="st2" d="M787.3,295.2c3.3-1.4,6.6-3,10-4.1c1.1-0.3,2.9,0.5,3.9,1.4c4.1,3.7,8.9,5,14.2,5.2c5.1,0.1,10.3,0.6,15.4,0.3
	c3-0.2,6-1.7,9-2.4c3.3-0.8,6.7-1.8,10.1-1.8c5.3,0,10.6,0.7,15.9,1c-5.4,1.7-10.7,3.8-16.2,5c-19.9,4.4-39.5,2-59-2.8
	C789.5,296.7,788.4,295.8,787.3,295.2z"/>
<path class="st0" d="M729.3,277.6c-1.1,3-1.6,5.5-2.9,7.5c-0.8,1.2-3.3,2.3-4.4,1.8c-1.4-0.6-3-2.7-3.1-4.2c-0.1-2.2,1-4.5,1.9-6.6
	c1-2.2,3-3.6,5.2-2.5C727.3,274.1,728.1,276.1,729.3,277.6z"/>
<path class="st0" d="M679.6,280.4c0-1-0.3-2.1,0.1-2.9c0.6-1.2,1.6-2.9,2.6-3c1.5-0.1,4,0.6,4.5,1.6c1.1,2.3,1.4,5,1.7,7.6
	c0.2,2.5-1.2,4.1-3.7,4.5c-2.6,0.4-4.1-1.1-4.7-3.4c-0.4-1.4-0.4-2.9-0.6-4.4C679.5,280.4,679.5,280.4,679.6,280.4z"/>
</svg>
